HIERARCHY
ROOT Hips
{
	OFFSET 0.00000 0.00000 0.00000
	CHANNELS 6 Xposition Yposition Zposition Zrotation Yrotation Xrotation 
	JOINT LHipJoint
	{
		OFFSET 0 0 0
		CHANNELS 3 Zrotation Yrotation Xrotation
		JOINT LeftUpLeg
		{
			OFFSET 1.37590 -1.78394 0.89329
			CHANNELS 3 Zrotation Yrotation Xrotation
			JOINT LeftLeg
			{
				OFFSET 2.47928 -6.81178 0.00000
				CHANNELS 3 Zrotation Yrotation Xrotation
				JOINT LeftFoot
				{
					OFFSET 2.63345 -7.23535 0.00000
					CHANNELS 3 Zrotation Yrotation Xrotation
					JOINT LeftToeBase
					{
						OFFSET 0.23938 -0.65768 2.27012
						CHANNELS 3 Zrotation Yrotation Xrotation
						End Site
						{
							OFFSET 0.00000 -0.00000 1.18363
						}
					}
				}
			}
		}
	}
	JOINT RHipJoint
	{
		OFFSET 0 0 0
		CHANNELS 3 Zrotation Yrotation Xrotation
		JOINT RightUpLeg
		{
			OFFSET -1.33617 -1.78394 0.89329
			CHANNELS 3 Zrotation Yrotation Xrotation
			JOINT RightLeg
			{
				OFFSET -2.56922 -7.05888 0.00000
				CHANNELS 3 Zrotation Yrotation Xrotation
				JOINT RightFoot
				{
					OFFSET -2.56568 -7.04915 0.00000
					CHANNELS 3 Zrotation Yrotation Xrotation
					JOINT RightToeBase
					{
						OFFSET -0.27533 -0.75646 2.18105
						CHANNELS 3 Zrotation Yrotation Xrotation
						End Site
						{
							OFFSET -0.00000 -0.00000 1.15233
						}
					}
				}
			}
		}
	}
	JOINT LowerBack
	{
		OFFSET 0 0 0
		CHANNELS 3 Zrotation Yrotation Xrotation
		JOINT Spine
		{
			OFFSET 0.06190 2.15152 -0.00935
			CHANNELS 3 Zrotation Yrotation Xrotation
			JOINT Spine1
			{
				OFFSET 0.06334 2.15332 0.00872
				CHANNELS 3 Zrotation Yrotation Xrotation
				JOINT Neck
				{
					OFFSET 0 0 0
					CHANNELS 3 Zrotation Yrotation Xrotation
					JOINT Neck1
					{
						OFFSET -0.04202 1.66908 0.23524
						CHANNELS 3 Zrotation Yrotation Xrotation
						JOINT Head
						{
							OFFSET 0.07510 1.69357 -0.24440
							CHANNELS 3 Zrotation Yrotation Xrotation
							End Site
							{
								OFFSET 0.02556 1.71719 -0.11000
							}
						}
					}
				}
				JOINT LeftShoulder
				{
					OFFSET 0 0 0
					CHANNELS 3 Zrotation Yrotation Xrotation
					JOINT LeftArm
					{
						OFFSET 3.67168 1.26306 -0.41342
						CHANNELS 3 Zrotation Yrotation Xrotation
						JOINT LeftForeArm
						{
							OFFSET 4.68510 -0.00000 -0.00000
							CHANNELS 3 Zrotation Yrotation Xrotation
							JOINT LeftHand
							{
								OFFSET 3.39626 -0.00000 -0.00000
								CHANNELS 3 Zrotation Yrotation Xrotation
								JOINT LeftFingerBase
								{
									OFFSET 0 0 0
									CHANNELS 3 Zrotation Yrotation Xrotation
									JOINT LeftHandIndex1
									{
										OFFSET 0.48608 -0.00000 -0.00000
										CHANNELS 3 Zrotation Yrotation Xrotation
										End Site
										{
											OFFSET 0.39189 -0.00000 -0.00000
										}
									}
								}
								JOINT LThumb
								{
									OFFSET 0 0 0
									CHANNELS 3 Zrotation Yrotation Xrotation
									End Site
									{
										OFFSET 0.39787 -0.00000 0.39787
									}
								}
							}
						}
					}
				}
				JOINT RightShoulder
				{
					OFFSET 0 0 0
					CHANNELS 3 Zrotation Yrotation Xrotation
					JOINT RightArm
					{
						OFFSET -3.04136 1.42992 -0.76390
						CHANNELS 3 Zrotation Yrotation Xrotation
						JOINT RightForeArm
						{
							OFFSET -5.55576 -0.00000 -0.00000
							CHANNELS 3 Zrotation Yrotation Xrotation
							JOINT RightHand
							{
								OFFSET -3.32774 -0.00000 -0.00000
								CHANNELS 3 Zrotation Yrotation Xrotation
								JOINT RightFingerBase
								{
									OFFSET 0 0 0
									CHANNELS 3 Zrotation Yrotation Xrotation
									JOINT RightHandIndex1
									{
										OFFSET -0.50763 -0.00000 -0.00000
										CHANNELS 3 Zrotation Yrotation Xrotation
										End Site
										{
											OFFSET -0.40926 -0.00000 -0.00000
										}
									}
								}
								JOINT RThumb
								{
									OFFSET 0 0 0
									CHANNELS 3 Zrotation Yrotation Xrotation
									End Site
									{
										OFFSET -0.41551 -0.00000 0.41551
									}
								}
							}
						}
					}
				}
			}
		}
	}
}
MOTION
Frames: 12
Frame Time: 0.0833333
0.00 0.00 0.00 0 0 0 0 0 0 -21 0 0 0 0 0 0 0 0 0 0 0 0 0 0 21 0 0 0 0 0 0 0 0 0 0 0 0 0 0 0 0 0 0 0 0 0 0 -16 0 0 21 0 0 11 0 0 0 -8 0 0 0 0 0 0 0 0 0 0 0 0 0 0 0 0 0 0 0 0 8 0 0 0 0 0 0 0 0 0 0 0 0 0 0 0 0 0
0.00 0.00 0.00 -83.5755 -81.2419 92.6616 0.0000 0.0000 0.0000 -5.1559 -7.1538 -28.2530 7.3192 15.5949 50.0714 0.3347 3.0157 -12.4609 0.7684 -5.5974 -15.6206 0.0000 0.0000 0.0000 32.6498 4.1928 -9.2682 -1.1649 -6.8515 19.2761 -0.6451 -4.7625 -17.6488 -0.7674 -5.5939 15.6105 4.8678 -0.0503 -0.6322 5.0615 -0.2178 -0.5208 2.4778 -0.1717 -0.1749 -4.4674 -0.1851 -19.6537 4.7176 0.0593 15.8199 2.3227 0.2386 8.1293 -0.0000 0.0000 0.0000 -94.5883 -0.1129 9.3944 15.8577 -25.3273 -3.5849 -0.0000 -0.0000 27.9074 14.4617 19.5336 4.9286 -7.1250 0.0000 -0.0000 -13.6630 49.6058 -1.5779 -0.0000 0.0000 0.0000 82.9639 2.3620 12.4860 -13.1670 21.5313 -2.5142 0.0000 0.0000 17.6398 -14.6890 -24.1742 6.1272 7.1250 -0.0000 -0.0000 15.4511 -54.2036 -3.5597
0.00 0.00 0.00 -99.1565 -81.3008 111.4110 0.0000 0.0000 0.0000 0.1215 -10.9043 -38.4507 1.4113 7.5137 21.2465 -0.1184 7.2391 -6.8151 0.3667 -3.8898 -10.7668 0.0000 0.0000 0.0000 32.6925 3.1631 -0.6281 -0.6645 -5.2133 14.5180 -1.1862 -2.2310 -21.4887 -0.6223 -5.0484 14.0465 6.2519 1.8196 -1.7876 2.7147 2.2366 -0.6443 -0.6557 1.0878 0.4721 -5.3947 0.4031 -19.6114 4.9935 1.1433 13.4051 2.6573 0.7469 7.2573 0.0000 -0.0000 0.0000 -94.3086 1.0420 16.4124 28.5711 -39.6367 -10.4860 -0.0000 -0.0000 15.5990 14.9837 21.8937 5.6993 -7.1250 0.0000 -0.0000 -14.1049 52.0212 -2.4790 0.0000 -0.0000 0.0000 80.7852 8.7150 37.6927 -29.1528 40.1561 -10.8591 0.0000 0.0000 15.3329 -18.4408 -23.4761 7.5665 7.1250 -0.0000 -0.0000 11.3490 -54.2209 -2.5973
0.00 0.00 0.00 -95.0469 -82.9116 107.1690 0.0000 0.0000 0.0000 -3.9640 -13.0254 -33.5879 0.9785 6.2970 17.6485 -0.1863 7.7163 -4.0728 0.1074 -2.1134 -5.8191 0.0000 0.0000 0.0000 28.3604 0.8036 -3.0878 -2.5230 -9.8797 28.5879 -0.3284 -3.7898 -12.8945 -0.0029 0.3481 -0.9566 4.6289 2.2753 -2.2046 1.8051 2.8962 -1.0602 -0.6638 1.4216 0.2824 -5.2951 -0.0406 -20.1244 5.1503 0.4921 14.0553 2.6342 0.4575 7.5952 0.0000 0.0000 0.0000 -93.8308 -1.2037 25.6558 32.8911 -43.2462 -13.3474 -0.0000 -0.0000 13.7843 15.4891 24.0685 6.4480 -7.1250 0.0000 -0.0000 -14.5989 54.2505 -3.3736 0.0000 0.0000 0.0000 81.1162 12.1146 42.8436 -41.3318 48.8394 -19.4360 0.0000 0.0000 18.8709 -20.4754 -21.4226 7.7661 7.1250 -0.0000 -0.0000 8.4901 -52.5072 -1.5779
0.00 0.00 0.00 -84.5330 -84.9089 95.5090 0.0000 0.0000 0.0000 -9.3740 -13.0047 -28.0011 1.1271 6.7433 18.9571 -0.0823 5.5874 -4.5150 0.0107 -0.6674 -1.8342 0.0000 0.0000 0.0000 24.2043 0.4432 -10.6313 -5.6395 -14.0696 43.5171 0.2785 -9.3695 -4.5898 -0.0039 0.4019 -1.1043 2.5591 2.1259 -1.9894 1.3421 2.7661 -1.0542 -0.0002 1.3679 0.0887 -5.1285 -0.4394 -20.1889 5.2991 -0.1402 14.5442 2.5887 0.1786 7.8052 0.0000 -0.0000 0.0000 -92.6465 -2.7518 34.0369 34.7237 -44.6138 -14.6190 -0.0000 -0.0000 12.5557 15.5928 24.8051 6.6777 -7.1250 0.0000 -0.0000 -14.8619 54.9921 -3.7074 0.0000 -0.0000 0.0000 81.6819 12.6852 44.9549 -48.3366 52.3022 -24.8518 0.0000 0.0000 19.9021 -20.6147 -20.2457 7.4166 7.1250 -0.0000 -0.0000 7.9549 -51.3170 -1.2445
0.00 0.00 0.00 -1.5049 -80.9990 9.6179 0.0000 0.0000 0.0000 -18.5231 -6.5831 -1.3422 3.0019 10.6981 31.2682 0.6095 -6.9036 -14.0086 1.1465 -6.7990 -19.1213 0.0000 0.0000 0.0000 9.6280 8.3970 -40.1810 -2.0380 -8.9448 25.6229 0.7711 -15.3570 -6.7568 -0.0618 -1.6040 4.4126 -0.7263 -0.6256 3.9424 1.9321 -0.8391 0.1907 2.4401 -0.4101 -1.9749 -4.6969 -1.5520 -19.6926 7.2491 -1.9296 9.4266 2.8901 -0.5144 6.1762 0.0000 -0.0000 0.0000 -99.6966 -34.8637 68.5030 53.7385 -54.3964 -29.1876 -0.0000 0.0000 -18.6436 10.0669 38.0625 6.2463 -7.1250 0.0000 -0.0000 -32.1304 65.7489 -16.8606 0.0000 -0.0000 0.0000 75.2463 35.9663 59.2069 -70.9486 58.5832 -43.5795 0.0000 0.0000 20.0665 -27.5862 -18.9744 9.6415 7.1250 -0.0000 -0.0000 0.6469 -51.1813 -0.0985
0.00 0.00 0.00 -16.6689 -81.7980 23.9875 0.0000 0.0000 0.0000 -14.4383 -7.2755 -9.3692 6.5687 14.9577 47.2235 0.0307 -6.5954 -5.3607 1.4121 -7.5158 -21.2527 0.0000 0.0000 0.0000 14.2282 9.3583 -40.4183 -3.5812 -11.5812 34.2662 0.3268 -10.4589 -6.8563 -0.1447 -2.4515 6.7551 1.4001 -0.5398 7.4717 2.8706 -0.5755 1.2940 2.2368 -0.3143 -2.8357 -4.4824 -1.1375 -19.6488 6.8157 -1.2981 7.6261 2.7658 -0.2594 5.5487 0.0000 -0.0000 0.0000 -104.9136 -42.4178 68.9475 56.2402 -55.2219 -31.2322 -0.0000 0.0000 -27.0106 13.4969 42.8935 9.2783 -7.1250 0.0000 -0.0000 -36.3403 70.6363 -23.2029 0.0000 -0.0000 0.0000 75.3546 46.0939 60.3280 -68.3912 58.1600 -41.4019 0.0000 0.0000 21.3829 -29.5943 -20.0171 11.0015 7.1250 -0.0000 -0.0000 -1.2195 -52.7076 0.2313
0.00 0.00 0.00 -43.5379 -82.3965 50.8546 0.0000 0.0000 0.0000 -8.8650 -7.5555 -26.0787 11.4048 18.1275 64.0893 -0.0689 -5.0021 -0.1349 1.0974 -6.6569 -18.7028 0.0000 0.0000 0.0000 20.4135 10.4699 -38.2633 -5.1948 -13.5999 41.6577 -0.1337 -5.2981 -10.8126 -0.2354 -3.1229 8.6210 3.8803 -0.2991 11.2994 3.9622 0.0327 2.8903 1.9436 -0.0758 -3.3091 -3.9991 -0.3905 -18.7036 6.1917 -0.2831 4.5436 2.5563 0.1483 4.3679 0.0000 -0.0000 0.0000 -110.4795 -51.6150 68.8129 56.8238 -55.4024 -31.7120 -0.0000 0.0000 -31.2748 15.2413 45.2268 10.9473 -7.1250 0.0000 -0.0000 -39.6181 72.9428 -27.3814 0.0000 -0.0000 0.0000 76.4500 58.8420 60.0014 -65.2567 57.5553 -38.7475 0.0000 0.0000 23.7257 -26.2389 -19.0561 9.1422 7.1250 -0.0000 -0.0000 2.0241 -51.0307 -0.3008
0.00 0.00 0.00 -74.4426 -81.3933 84.2673 0.0000 0.0000 0.0000 -4.2368 -8.0154 -47.9283 7.1728 15.4757 49.5247 0.1607 0.3965 -7.7255 0.6538 -5.1721 -14.3999 0.0000 0.0000 0.0000 27.0150 10.1980 -30.9819 -6.2569 -14.6728 46.0044 -0.9747 -1.4077 -19.2107 -0.0153 -0.7991 2.1962 5.7445 0.1668 13.6605 4.8553 0.8077 4.7541 1.7297 0.2535 -2.6163 -2.8763 0.4661 -15.9930 5.4382 0.7119 0.1030 2.3819 0.5015 2.8435 0.0000 0.0000 0.0000 -120.1879 -63.1752 71.4839 53.5341 -54.3251 -29.0214 -0.0000 0.0000 -28.2598 12.4095 42.3179 8.4264 -7.1250 0.0000 -0.0000 -36.3925 69.8401 -22.6220 0.0000 0.0000 0.0000 79.2498 77.0870 57.1002 -62.4989 56.9399 -36.4280 0.0000 0.0000 24.4277 -23.1425 -16.5758 6.9520 7.1250 -0.0000 -0.0000 4.5164 -47.8649 -0.3199
0.00 0.00 0.00 -80.7378 -80.9575 91.4224 0.0000 0.0000 0.0000 -3.0552 -9.3998 -49.8471 3.4158 11.3395 33.4337 0.0858 2.3338 -6.9065 0.6071 -4.9873 -13.8722 0.0000 0.0000 0.0000 27.4381 8.5458 -28.2177 -7.5053 -15.7430 50.7604 -1.0450 0.9291 -19.0359 -0.0802 1.8269 -5.0276 5.6854 0.2356 13.3962 5.0780 0.8123 5.1378 1.9959 0.2526 -2.0718 -2.3598 0.4569 -15.3755 5.5294 0.5997 -0.1745 2.2935 0.4393 2.6360 0.0000 0.0000 0.0000 -129.2467 -65.2681 77.6629 49.7147 -52.8798 -25.9465 -0.0000 0.0000 -26.5797 15.0377 41.1825 10.0318 -7.1250 0.0000 -0.0000 -31.4879 69.8106 -19.3335 0.0000 0.0000 0.0000 83.8813 82.1935 57.3577 -57.7188 55.6708 -32.4500 0.0000 0.0000 24.5237 -27.7202 -16.6459 8.5600 7.1250 -0.0000 -0.0000 0.1026 -48.6420 -0.0092
0.00 0.00 0.00 -85.9150 -81.4808 95.1221 0.0000 0.0000 0.0000 -4.5325 -10.1208 -48.7131 3.1124 10.8747 31.8586 -0.0122 3.4714 -4.3116 0.1839 -2.7623 -7.6176 0.0000 0.0000 0.0000 24.0449 7.6122 -29.1342 -11.7279 -18.2732 65.1237 -0.2223 -0.6101 -9.1491 -0.1010 2.0498 -5.6433 4.5864 -0.1129 13.8510 5.0537 0.1588 5.8519 2.6856 -0.0911 -1.5768 -2.2697 0.1517 -15.9945 6.0839 0.1156 0.7974 2.4595 0.2431 3.1181 -0.0000 -0.0000 0.0000 -137.7938 -62.6466 85.0073 43.5995 -50.0636 -21.1594 -0.0000 0.0000 -27.5255 22.6289 42.5133 15.7321 -7.1250 0.0000 -0.0000 -24.9315 73.5121 -17.1032 -0.0000 -0.0000 0.0000 90.1024 79.3505 56.3656 -49.3458 52.7282 -25.6526 0.0000 0.0000 27.0833 -29.3787 -18.3364 10.0436 7.1250 -0.0000 -0.0000 -1.2844 -50.7990 0.1836
0.00 0.00 0.00 -95.3905 -83.5192 101.5140 0.0000 0.0000 0.0000 -10.1739 -9.0163 -44.7502 6.6117 14.9960 47.3899 0.2332 1.5404 -9.8185 0.0092 -0.6209 -1.7064 0.0000 0.0000 0.0000 17.1682 10.6614 -36.8699 -15.4366 -19.4932 76.5484 0.2964 -9.6020 -3.2611 -0.0173 -0.8490 2.3335 2.3862 -1.0700 14.7885 4.5777 -1.4692 6.9811 3.6791 -0.9599 -0.8293 -2.8721 0.0236 -17.9887 6.6293 -0.0254 2.8229 2.5156 0.2670 3.7157 -0.0000 -0.0000 0.0000 -130.4339 -52.6292 82.8920 37.7161 -46.6571 -16.7589 -0.0000 0.0000 -30.6748 30.9707 47.2660 23.7892 -7.1250 0.0000 -0.0000 -26.7558 80.6829 -22.2603 -0.0000 -0.0000 0.0000 89.3315 59.1431 49.7144 -46.5511 51.5061 -23.4466 0.0000 0.0000 27.5164 -26.5211 -22.1821 10.6703 7.1250 -0.0000 -0.0000 2.5162 -54.4601 -0.5852
